<svg width="240" height="240" viewBox="0 0 240 240" fill="none" xmlns="http://www.w3.org/2000/svg">
<path d="M30 172.5V210H67.5L178.1 99.4L140.6 61.9L30 172.5ZM207.1 70.4C208.027 69.4749 208.763 68.376 209.264 67.1663C209.766 65.9565 210.024 64.6597 210.024 63.35C210.024 62.0403 209.766 60.7435 209.264 59.5338C208.763 58.3241 208.027 57.2252 207.1 56.3L183.7 32.9C182.775 31.973 181.676 31.2375 180.466 30.7357C179.257 30.2339 177.96 29.9756 176.65 29.9756C175.34 29.9756 174.043 30.2339 172.834 30.7357C171.624 31.2375 170.525 31.973 169.6 32.9L151.3 51.2L188.8 88.7L207.1 70.4Z" fill="white"/>
</svg>
