<svg width="127" height="42" viewBox="0 0 127 42" fill="none" xmlns="http://www.w3.org/2000/svg">
<path d="M122.936 28.361C126.871 28.43 126.928 34.4893 122.68 34.2903C118.839 34.1101 118.903 28.2896 122.936 28.361Z" fill="black"/>
<path d="M123.753 26.7551C123.205 27.2959 122.015 27.0992 121.743 26.3291L119.699 13.1584C119.61 11.521 119.597 10.484 121.256 9.80283C123.965 8.6921 126.324 10.3014 126.119 13.2614C125.834 17.3696 124.428 21.8406 124.117 26.0049C124.061 26.2331 123.918 26.5925 123.754 26.754L123.753 26.7551Z" fill="black"/>
<path d="M77.5318 10.3202C78.488 10.1669 79.3401 10.2968 79.4349 11.404L79.463 30.8048C79.6409 31.795 80.3139 31.5211 80.9588 31.7669C82.1268 32.2105 82.0356 33.9685 80.7738 34.1616C78.5922 34.4952 75.5866 33.9509 73.3183 34.1417C72.252 33.9696 72.0554 32.5019 72.9566 31.9624C73.7069 31.5129 74.5016 31.8032 74.6362 30.5988V14.6812C74.6549 12.963 72.1783 13.485 72.4182 11.7645C72.6582 10.044 74.6678 11.0716 75.617 10.9897C76.1987 10.9393 76.9314 10.4173 77.5318 10.3202Z" fill="black"/>
<path d="M99.4163 31.3924C100.409 32.3861 98.8697 33.9158 97.8901 34.3056C95.8009 35.1378 93.2014 34.6029 92.2522 32.4142C88.8791 36.5153 80.6627 34.8826 82.4184 28.5471C83.5466 24.4788 88.1803 25.4643 90.9062 24.2775C92.1738 23.725 92.0743 22.7103 91.9573 21.4708C91.784 19.6297 90.2742 18.7168 88.5993 19.6309C87.1269 20.4338 87.615 22.42 86.5172 23.1667C84.38 24.6192 82.7941 22.8308 83.5256 20.5263C84.8797 16.2589 93.1195 15.8364 95.7026 19.0141C97.965 21.7985 96.5781 26.7248 97.0474 30.0757C97.436 31.6101 98.8358 30.8107 99.4175 31.3924H99.4163ZM91.9584 26.5609C90.6054 26.7611 87.5506 27.1906 87.2124 28.7777C86.7477 30.9594 88.865 31.939 90.6991 31.2122C91.0642 31.0682 91.9584 30.4163 91.9584 30.0137V26.5609Z" fill="black"/>
<path d="M60.9179 9.97481C62.9158 9.77116 65.0343 9.92332 66.873 10.7391C67.2628 10.9123 68.4695 11.6988 68.7281 11.693C69.0453 11.686 70.348 9.93971 71.2445 11.0481C71.6261 11.5198 71.3218 13.4591 71.3534 14.2164C71.3932 15.1808 71.9912 18.0507 71.5313 18.7155C71.241 19.1357 70.6605 19.2831 70.1806 19.1333C69.5029 18.9215 69.0933 17.2232 68.7656 16.5701C67.4137 13.8618 65.4299 12.5439 62.3189 12.8985C54.6234 13.7787 54.9371 30.9616 63.1008 31.4801C66.289 31.6825 67.7356 30.0557 69.6036 27.9091C70.8875 26.4332 72.9615 27.3871 71.8016 29.639C70.3199 32.5194 66.4786 34.4178 63.3372 34.6343C46.9268 35.7638 46.7313 11.4203 60.9144 9.97365L60.9179 9.97481Z" fill="black"/>
<path d="M106.472 37.7384C106.686 38.8175 108.246 38.4371 108.667 39.2868C108.954 39.8638 108.704 40.6305 108.116 40.9043L100.334 40.95C99.7546 40.8177 99.2852 40.2454 99.3543 39.6415C99.5158 38.2323 101.308 38.8866 101.618 37.6822L101.662 21.0108C101.435 19.405 99.6715 20.5742 99.4596 19C99.1694 16.8464 101.344 17.558 102.667 17.4293C103.679 17.331 104.942 16.5012 105.892 17.2491C106.587 17.7968 106.247 18.6816 106.413 19.419C107.704 17.6271 109.608 16.8324 111.803 16.9565C120.769 17.4609 120.494 33.8971 111.094 34.6333C109.401 34.7655 108.014 34.2774 106.473 33.6993C106.634 34.872 106.255 36.6417 106.473 37.7372L106.472 37.7384ZM109.254 20.0358C108.201 20.1657 106.896 21.2226 106.499 22.1987C106.659 24.618 106.192 27.5394 106.469 29.8989C106.568 30.7393 107.799 31.4825 108.555 31.6756C113.343 32.8975 113.732 26.2718 112.876 23.1409C112.423 21.4836 111.174 19.7982 109.254 20.0358Z" fill="black"/>
<path d="M0.170582 15.6153C0.233707 15.5413 1.14112 16.3334 1.28611 16.4231C4.25099 18.2715 8.85612 18.2735 12.2569 18.0851C14.4111 17.9657 16.5593 17.6166 18.7124 17.4883C18.7351 17.3157 18.4885 17.3956 18.3692 17.3907C16.5731 17.3167 14.6478 17.3729 12.8399 17.3858C9.41437 17.4114 4.03893 17.8631 1.20819 15.5147C-0.474472 14.1191 -0.500115 11.2272 1.77039 10.4588C12.8428 7.34996 23.7565 3.64534 34.8131 0.497994C36.2827 0.079794 37.8283 -0.627397 38.6558 1.14601C39.0809 2.05835 40.0041 5.1406 40.1698 6.14172C40.4904 8.07491 38.928 8.42998 37.4298 8.93399C31.4064 10.9599 24.8957 12.1484 18.8584 14.2315L17.9234 14.627C23.647 13.5884 29.3795 12.6011 35.2372 12.7501C36.2985 12.7767 37.631 12.828 38.6844 12.9523C39.6757 13.0686 40.9273 13.1732 41.093 14.3903C41.2439 15.5019 41.2084 18.3563 41.1058 19.5142C41.0319 20.3566 40.5693 20.7876 39.8177 21.0864C39.2762 21.3015 34.4847 22.3203 34.4925 22.6665C35.4631 22.6705 36.5993 22.5551 37.5718 22.3913C38.4694 22.2404 39.3492 22.0017 40.2142 21.7295V25.9214C40.2142 25.9993 39.8473 26.7341 39.7644 26.8525C38.641 28.4562 36.0411 28.7511 34.6918 30.1123C36.9771 29.7513 39.1894 28.9563 40.807 27.2529V33.3188C40.807 34.1098 39.3127 34.8121 38.6884 35.0468C36.4632 35.8842 33.8692 36.1012 31.5365 36.5253C31.5139 36.6979 31.7604 36.618 31.8798 36.623C33.8159 36.7019 36.3103 36.4711 38.1656 35.9049C39.0168 35.6455 39.797 35.1928 40.6097 34.8476V37.4613C40.6097 39.3215 37.5363 40.4962 36.0726 40.9134C31.7575 42.1424 27.1011 41.8386 22.7396 41.0308C21.773 40.8523 20.7087 40.66 19.7993 40.3217C21.1871 39.8847 22.6547 39.6628 24.009 39.1075C27.0271 37.8687 28.6565 35.4088 30.5325 32.9075C31.789 31.2327 33.2074 29.3922 34.3791 27.68C34.9048 26.9126 36.0924 25.3878 34.9837 24.6461C33.9757 23.9714 32.9608 24.7585 32.2753 25.4775C31.3827 26.4136 29.9308 28.9563 29.1201 29.5224C28.5539 29.918 27.8674 29.7148 28.1614 28.9583C28.6447 27.7165 30.6558 25.0988 31.5395 23.9527C32.3069 22.9575 34.4353 21.261 33.4559 19.8604C33.0387 19.2637 32.2812 19.2548 31.6815 19.5576C29.9969 20.4069 27.5627 25.2349 26.0635 26.8604C25.5387 27.4295 25.4312 27.4738 24.6323 27.3515C24.9568 26.6108 25.3947 25.9135 25.7981 25.2142C26.5694 23.8777 29.3795 19.7421 29.4682 18.522C29.5235 17.7586 29.0569 16.6786 28.1574 16.9212C27.83 17.01 27.3654 17.6097 27.1543 17.8898C25.5042 20.0804 24.1372 22.7583 22.563 25.0357C22.1606 25.6176 21.7266 26.6 20.8863 26.3623C20.8517 26.1413 20.9375 25.948 21.0056 25.7468C21.7868 23.4339 24.1461 20.7945 24.802 18.4974C25.2113 17.0652 24.1244 16.1036 22.9062 16.9962C21.6881 17.8888 19.2549 22.8095 18.598 24.3265C18.2853 25.0485 17.6827 26.1966 17.8691 26.9649C18.023 27.5981 19.6987 28.7186 20.2442 29.3232C20.9218 30.0748 22.4279 32.2309 21.6585 33.2063C21.5057 33.4006 21.3291 33.4884 21.0825 33.4667C20.7166 32.0208 19.6129 30.6459 18.5181 29.6684C17.8178 29.0441 16.5612 28.5046 16.4458 27.4995C16.3137 26.3494 16.7556 25.1935 16.6313 23.9606C16.4863 22.5255 15.0463 19.7214 13.2334 20.4394C12.0439 20.9109 12.8547 22.1596 13.0647 22.99C14.3065 27.8891 10.7104 33.0081 15.9201 36.8035C16.6599 37.343 17.2882 37.4889 17.9963 37.8825C18.1088 37.9446 18.164 37.8756 18.1226 38.1024C14.5225 38.8678 10.666 38.9438 7.05707 38.1705C5.476 37.8322 1.45379 36.6575 1.45379 34.601V30.1132C2.12152 30.3204 2.68964 30.8145 3.36034 31.1163C5.6486 32.147 8.44186 32.3867 10.9225 32.4794C10.88 32.292 10.6759 32.2841 10.5279 32.2338C8.08876 31.3974 3.49744 31.432 1.86508 29.1595C1.76645 29.0224 1.45379 28.5085 1.45379 28.3872V23.9981C4.10107 24.8414 7.6824 25.4973 10.4323 24.936C10.5477 24.9124 10.7982 24.9232 10.7242 24.7388L10.2794 24.3946C7.62617 24.1894 4.54886 24.504 2.04755 23.4536C1.36206 23.1656 0.171568 22.3065 0.171568 21.4829V15.6143L0.170582 15.6153ZM28.1821 4.47089C28.1318 4.66421 28.2629 4.66125 28.3478 4.74805C29.0283 5.43847 31.4202 7.37659 32.2329 7.8658C32.5317 8.0463 32.6905 8.13803 33.0594 8.12225C33.5684 8.10055 36.5954 7.13593 37.1576 6.88639C37.271 6.83609 37.3815 6.79565 37.4545 6.68715C37.4841 6.55696 37.2503 6.38139 37.1596 6.29361C36.2423 5.40691 34.7549 4.02606 33.7548 3.28731C33.595 3.16993 33.4254 3.07328 33.237 3.00917L28.1831 4.47089H28.1821ZM26.8999 9.89368C25.3967 8.68445 23.9261 7.37758 22.2888 6.36068L17.5298 7.72575C17.3976 7.85397 20.1367 9.93609 20.3438 10.089C21.048 10.6117 21.5402 11.168 22.4861 11.0526C23.8659 10.8839 25.5121 10.1768 26.8999 9.89368ZM16.8394 12.9513L16.5908 12.5597L12.3309 9.3226C11.9117 9.22594 11.4334 9.438 11.0211 9.54945C10.0752 9.80392 8.49512 10.2251 7.64097 10.6078C7.50683 10.6679 7.36579 10.7015 7.27505 10.8317C8.37381 11.6917 9.41339 12.6593 10.5378 13.4849C11.2371 13.9978 11.6504 14.4643 12.6041 14.2887C13.9722 14.0362 15.4428 13.2048 16.8394 12.9523V12.9513ZM40.2152 14.7276C38.3964 14.5708 36.5678 14.3706 34.7372 14.4268C33.5338 14.4633 31.9962 14.5748 30.8037 14.7355C30.7268 14.7464 30.4467 14.8036 30.4496 14.8746C33.309 15.209 36.4731 15.6035 39.3295 15.0738C39.5603 15.0314 39.8552 14.99 40.0702 14.9269C40.2152 14.8845 40.2428 14.9811 40.2142 14.7276H40.2152Z" fill="black"/>
</svg>
