<svg width="111" height="117" viewBox="0 0 111 117" fill="none" xmlns="http://www.w3.org/2000/svg">
<path d="M22.7546 27.1043C22.8642 26.9759 24.4392 28.3506 24.6909 28.5064C29.8371 31.7147 37.8305 31.7181 43.7335 31.3911C47.4725 31.184 51.2012 30.5779 54.9385 30.3554C54.9779 30.0558 54.5499 30.1944 54.3428 30.1859C51.2252 30.0575 47.8834 30.1551 44.7453 30.1773C38.7995 30.2218 29.4691 31.0059 24.5556 26.9296C21.6349 24.5072 21.5904 19.4876 25.5315 18.1539C44.7504 12.7577 63.6937 6.32739 82.8853 0.864392C85.4362 0.138502 88.1189 -1.089 89.5553 1.98918C90.2931 3.57278 91.8956 8.92279 92.1832 10.6605C92.7396 14.016 90.0278 14.6323 87.4272 15.5072C76.972 19.0236 65.6711 21.0866 55.1919 24.7023L53.5689 25.3888C63.5037 23.5861 73.4539 21.8724 83.6215 22.1309C85.4636 22.1771 87.7765 22.2661 89.6049 22.4819C91.3255 22.6839 93.498 22.8653 93.7856 24.978C94.0476 26.9074 93.9859 31.8619 93.8079 33.8718C93.6795 35.3339 92.8765 36.082 91.572 36.6008C90.6321 36.974 82.3152 38.7425 82.3289 39.3434C84.0135 39.3502 85.9857 39.1499 87.6738 38.8657C89.2317 38.6038 90.7588 38.1895 92.2602 37.717V44.993C92.2602 45.1282 91.6233 46.4037 91.4795 46.6091C89.5296 49.3928 85.0167 49.9047 82.6747 52.2673C86.6414 51.6407 90.4814 50.2608 93.2891 47.3042V57.833C93.2891 59.206 90.6954 60.425 89.6117 60.8325C85.7495 62.2859 81.2469 62.6626 77.198 63.3987C77.1586 63.6983 77.5866 63.5597 77.7938 63.5682C81.1544 63.7052 85.4841 63.3046 88.7044 62.3219C90.1818 61.8716 91.536 61.0858 92.9467 60.4866V65.0234C92.9467 68.2523 87.6121 70.2913 85.0715 71.0154C77.5815 73.1486 69.4991 72.6213 61.9286 71.2192C60.2509 70.9093 58.4036 70.5755 56.8252 69.9882C59.234 69.2298 61.7814 68.8446 64.132 67.8808C69.3707 65.7305 72.199 61.4608 75.4552 57.1191C77.6363 54.2121 80.0981 51.0175 82.132 48.0455C83.0445 46.7136 85.1058 44.0668 83.1815 42.7794C81.4318 41.6084 79.6701 42.9745 78.4803 44.2226C76.9309 45.8473 74.4109 50.2608 73.0036 51.2435C72.0209 51.93 70.8294 51.5774 71.3395 50.2643C72.1784 48.1088 75.6692 43.5652 77.2031 41.5758C78.5351 39.8484 82.2296 36.9038 80.5296 34.4727C79.8054 33.437 78.4906 33.4216 77.4497 33.9471C74.5256 35.4212 70.3004 43.8014 67.6981 46.6228C66.7873 47.6106 66.6007 47.6877 65.214 47.4754C65.7772 46.1897 66.5374 44.9793 67.2376 43.7655C68.5764 41.4457 73.4539 34.2673 73.6079 32.1495C73.7038 30.8245 72.894 28.9498 71.3327 29.371C70.7643 29.525 69.9579 30.5659 69.5916 31.0522C66.7274 34.8545 64.3546 39.5026 61.6222 43.4556C60.9237 44.4657 60.1704 46.1708 58.7118 45.7583C58.6519 45.3748 58.8008 45.0392 58.9189 44.69C60.2749 40.6753 64.37 36.094 65.5084 32.1067C66.2189 29.6209 64.3323 27.9517 62.218 29.5011C60.1037 31.0504 55.8801 39.5916 54.7399 42.2247C54.1972 43.4779 53.1512 45.4706 53.4748 46.8043C53.7418 47.9034 56.6505 49.8482 57.5973 50.8977C58.7734 52.2022 61.3877 55.9447 60.0523 57.6378C59.7869 57.9751 59.4805 58.1275 59.0525 58.0898C58.4173 55.58 56.5016 53.1935 54.6013 51.4969C53.3857 50.4132 51.2047 49.4767 51.0044 47.7322C50.7749 45.736 51.5419 43.7295 51.3262 41.5895C51.0745 39.0986 48.575 34.2313 45.4284 35.4777C43.3637 36.296 44.771 38.4634 45.1356 39.9049C47.291 48.4084 41.0491 57.2937 50.0919 63.8815C51.3759 64.818 52.4664 65.0714 53.6956 65.7545C53.8908 65.8623 53.9867 65.7425 53.9148 66.1362C47.6659 67.4647 40.972 67.5966 34.7078 66.2544C31.9635 65.6671 24.9819 63.6281 24.9819 60.0586V52.269C26.1409 52.6285 27.127 53.4862 28.2912 54.0101C32.2631 55.7992 37.1114 56.2152 41.4171 56.3761C41.3435 56.0508 40.9891 56.0371 40.7323 55.9498C36.4986 54.498 28.5292 54.558 25.6958 50.6135C25.5246 50.3755 24.9819 49.4836 24.9819 49.273V41.6546C29.5769 43.1183 35.7932 44.2568 40.5663 43.2827C40.7666 43.2416 41.2014 43.2604 41.073 42.9403L40.3009 42.3428C35.6956 41.9867 30.3542 42.5328 26.0125 40.7096C24.8227 40.2097 22.7563 38.7185 22.7563 37.289V27.1026L22.7546 27.1043ZM71.3755 7.76034C71.2882 8.09589 71.5159 8.09076 71.6631 8.24142C72.8444 9.43982 76.996 12.8039 78.4067 13.6531C78.9254 13.9664 79.2011 14.1256 79.8413 14.0982C80.7247 14.0605 85.9789 12.3862 86.9547 11.953C87.1516 11.8657 87.3433 11.7955 87.47 11.6072C87.5214 11.3812 87.1156 11.0765 86.9581 10.9241C85.366 9.38503 82.7843 6.98823 81.0483 5.70594C80.771 5.50221 80.4765 5.33443 80.1495 5.22315L71.3772 7.76034H71.3755ZM69.1499 17.1729C66.5408 15.074 63.9882 12.8056 61.1463 11.0405L52.8858 13.41C52.6564 13.6325 57.4107 17.2466 57.7702 17.5119C58.9926 18.4193 59.8469 19.3848 61.4887 19.1845C63.8838 18.8918 66.7411 17.6643 69.1499 17.1729ZM51.6874 22.4801L51.256 21.8005L43.8619 16.1817C43.1343 16.0139 42.304 16.382 41.5883 16.5754C39.9465 17.0171 37.2039 17.7482 35.7213 18.4124C35.4885 18.5169 35.2436 18.5751 35.0861 18.8011C36.9933 20.2939 38.7978 21.9734 40.7495 23.4063C41.9633 24.2966 42.6806 25.1064 44.3361 24.8016C46.7106 24.3634 49.2632 22.9201 51.6874 22.4819V22.4801ZM92.2619 25.5635C89.105 25.2913 85.9309 24.9437 82.7535 25.0413C80.6648 25.1047 77.9958 25.2981 75.926 25.5772C75.7925 25.596 75.3062 25.6953 75.3114 25.8186C80.2745 26.3989 85.7666 27.0837 90.7246 26.1644C91.1252 26.0908 91.6371 26.0189 92.0103 25.9093C92.2619 25.8357 92.3099 26.0035 92.2602 25.5635H92.2619Z" fill="white"/>
<path d="M81.6784 112.105C81.9917 113.684 84.2738 113.127 84.8901 114.37C85.3096 115.214 84.9432 116.336 84.0838 116.736L72.7006 116.803C71.8532 116.61 71.1667 115.772 71.2677 114.889C71.504 112.828 74.125 113.785 74.5787 112.023L74.6438 87.6373C74.3116 85.2884 71.7317 86.9987 71.4218 84.6961C70.9972 81.546 74.1781 82.5869 76.1127 82.3986C77.5936 82.2547 79.4408 81.0409 80.8309 82.1349C81.8479 82.9361 81.3497 84.2304 81.5928 85.309C83.4811 82.6879 86.2666 81.5254 89.4766 81.7069C102.592 82.4448 102.19 106.486 88.4391 107.563C85.9635 107.757 83.9348 107.043 81.6801 106.197C81.9164 107.913 81.3617 110.501 81.6801 112.104L81.6784 112.105ZM85.7478 86.2112C84.2087 86.4012 82.2998 87.9472 81.7178 89.375C81.9523 92.9137 81.2692 97.1868 81.675 100.638C81.8188 101.867 83.6198 102.955 84.7258 103.237C91.7296 105.024 92.2979 95.3327 91.0465 90.7531C90.3839 88.3289 88.5572 85.8636 85.7478 86.2112Z" fill="white"/>
<path d="M15.0452 71.4948C17.9676 71.1969 21.0664 71.4195 23.7559 72.6127C24.326 72.8661 26.0911 74.0166 26.4694 74.008C26.9334 73.9977 28.8388 71.4434 30.1502 73.0647C30.7084 73.7546 30.2632 76.5914 30.3095 77.6991C30.3677 79.1098 31.2425 83.3076 30.5697 84.28C30.1451 84.8946 29.296 85.1104 28.594 84.8912C27.6028 84.5813 27.0036 82.0972 26.5242 81.1419C24.5469 77.1804 21.645 75.2526 17.0945 75.7714C5.83808 77.0588 6.2969 102.193 18.2381 102.951C22.9016 103.247 25.0177 100.868 27.75 97.7278C29.6281 95.569 32.6618 96.9643 30.9652 100.258C28.7978 104.471 23.179 107.248 18.5839 107.565C-5.42005 109.217 -5.70596 73.6091 15.0401 71.4931L15.0452 71.4948Z" fill="white"/>
<path d="M71.3581 102.823C72.8099 104.276 70.5586 106.514 69.1257 107.084C66.0698 108.301 62.2674 107.519 60.879 104.317C55.945 110.316 43.9267 107.928 46.4947 98.6609C48.1451 92.71 54.9229 94.1515 58.9102 92.4155C60.7643 91.6074 60.6187 90.1231 60.4475 88.3101C60.1942 85.6171 57.9857 84.2818 55.5358 85.6188C53.3821 86.7933 54.096 89.6986 52.4901 90.7908C49.364 92.9154 47.0443 90.2995 48.1143 86.9285C50.095 80.6866 62.1476 80.0685 65.9259 84.7166C69.2352 88.7895 67.2065 95.9953 67.893 100.897C68.4614 103.141 70.509 101.972 71.3598 102.823H71.3581ZM60.4492 95.7556C58.4702 96.0484 54.0018 96.6767 53.5071 98.9982C52.8274 102.189 55.9244 103.622 58.6071 102.559C59.1413 102.349 60.4492 101.395 60.4492 100.806V95.7556Z" fill="white"/>
<path d="M39.3474 71.9998C40.7461 71.7756 41.9924 71.9656 42.1311 73.5852L42.1722 101.963C42.4324 103.412 43.4168 103.011 44.3601 103.371C46.0687 104.019 45.9352 106.591 44.0896 106.873C40.8985 107.361 36.502 106.565 33.1842 106.844C31.6245 106.593 31.3369 104.446 32.6552 103.657C33.7525 102.999 34.915 103.424 35.1119 101.662V78.3788C35.1393 75.8655 31.5167 76.6291 31.8676 74.1125C32.2186 71.5958 35.1581 73.099 36.5465 72.9791C37.3974 72.9055 38.4691 72.1419 39.3474 71.9998Z" fill="white"/>
<path d="M106.956 96.0398C106.155 96.8307 104.414 96.5431 104.016 95.4166L101.026 76.1514C100.895 73.7563 100.877 72.2395 103.304 71.2431C107.266 69.6184 110.717 71.9724 110.418 76.3021C110 82.3112 107.944 88.8511 107.488 94.9424C107.406 95.2762 107.197 95.8018 106.958 96.0381L106.956 96.0398Z" fill="white"/>
<path d="M105.761 98.3886C111.517 98.4897 111.601 107.353 105.386 107.062C99.7691 106.798 99.8616 98.2842 105.761 98.3886Z" fill="white"/>
</svg>
