<?xml version="1.0" encoding="UTF-8"?>
<svg id="Capa_1" xmlns="http://www.w3.org/2000/svg" version="1.1" viewBox="0 0 31 25">
  <!-- Generator: Adobe Illustrator 30.0.0, SVG Export Plug-In . SVG Version: 2.1.1 Build 123)  -->
  <defs>
    <style>
      .st0 {
        fill: #fff;
      }
    </style>
  </defs>
  <path class="st0" d="M29.8,8.5l1.2,1.2-1.2,1.2-1.2-1.2,1.2-1.2ZM3.4,23.3c0,.5-.2.9-.5,1.2-.3.3-.7.5-1.2.5s-.9-.2-1.2-.5c-.3-.3-.5-.8-.5-1.2h3.4ZM19,17l8.4-8.5,2.4,2.4-8.4,8.5-2.4-2.4ZM27.4,10.9L19,2.4,21.4,0l8.4,8.5-2.4,2.4ZM28.6,11.4H11.8s0-3.4,0-3.4h16.8s0,3.4,0,3.4ZM3.4,19.9v3.4s-3.4,0-3.4,0v-3.4s3.4,0,3.4,0ZM11.8,11.4c-2.2,0-4.4.9-6,2.5-1.6,1.6-2.5,3.8-2.5,6H0c0-3.2,1.2-6.2,3.5-8.4,2.2-2.2,5.2-3.5,8.3-3.5v3.4Z"/>
</svg>