<svg width="1028" height="1028" viewBox="0 0 1028 1028" fill="none" xmlns="http://www.w3.org/2000/svg">
<path d="M514 257L575.423 375.959L706.75 395.041L610.375 481.875L642.5 610.375L514 538.094L385.5 610.375L417.625 481.875L321.25 395.041L456.175 375.959L514 257Z" fill="black"/>
<path d="M569.769 963.75L514 931.625L642.5 706.75H835.25C843.691 706.763 852.052 705.109 859.852 701.885C867.653 698.661 874.741 693.929 880.71 687.96C886.679 681.991 891.411 674.903 894.635 667.102C897.859 659.302 899.513 650.941 899.5 642.5V257C899.513 248.559 897.859 240.198 894.635 232.398C891.411 224.597 886.679 217.509 880.71 211.54C874.741 205.571 867.653 200.839 859.852 197.615C852.052 194.391 843.691 192.737 835.25 192.75H192.75C184.309 192.737 175.948 194.391 168.148 197.615C160.347 200.839 153.259 205.571 147.29 211.54C141.321 217.509 136.589 224.597 133.365 232.398C130.141 240.198 128.487 248.559 128.5 257V642.5C128.487 650.941 130.141 659.302 133.365 667.102C136.589 674.903 141.321 681.991 147.29 687.96C153.259 693.929 160.347 698.661 168.148 701.885C175.948 705.109 184.309 706.763 192.75 706.75H481.875V771H192.75C158.67 771 125.985 757.462 101.887 733.363C77.7884 709.265 64.25 676.58 64.25 642.5V257C64.25 222.92 77.7884 190.235 101.887 166.137C125.985 142.038 158.67 128.5 192.75 128.5H835.25C869.33 128.5 902.015 142.038 926.113 166.137C950.212 190.235 963.75 222.92 963.75 257V642.5C963.75 676.58 950.212 709.265 926.113 733.363C902.015 757.462 869.33 771 835.25 771H679.926L569.769 963.75Z" fill="black"/>
</svg>
