<?xml version="1.0" encoding="UTF-8"?>
<svg id="Capa_1" xmlns="http://www.w3.org/2000/svg" version="1.1" viewBox="0 0 31 25">
  <!-- Generator: Adobe Illustrator 30.0.0, SVG Export Plug-In . SVG Version: 2.1.1 Build 123)  -->
  <path d="M2.4,9.7l-1.2,1.2-1.2-1.2,1.2-1.2,1.2,1.2ZM31,23.3c0,.5-.2.9-.5,1.2-.3.3-.7.5-1.2.5s-.9-.2-1.2-.5c-.3-.3-.5-.8-.5-1.2h3.4ZM9.6,19.4L1.2,10.9l2.4-2.4,8.4,8.5-2.4,2.4ZM1.2,8.5L9.6,0l2.4,2.4L3.6,10.9s-2.4-2.4-2.4-2.4ZM2.4,8h16.8v3.4H2.4s0-3.4,0-3.4ZM31,19.9v3.4h-3.4v-3.4h3.4ZM19.2,8c3.1,0,6.1,1.3,8.3,3.5,2.2,2.2,3.5,5.3,3.5,8.4h-3.4c0-2.3-.9-4.4-2.5-6s-3.7-2.5-6-2.5v-3.4h.1Z"/>
</svg>